<svg xmlns="http://www.w3.org/2000/svg" viewBox="0 0 400 300" data-imageid="user-profile-7" imageName="Coding" class="illustrations_image" style="width: 272px;"><g id="_178_coding_outline" data-name="#178_coding_outline"><rect x="122.79" y="154.42" width="154.42" height="81.89" rx="4.17" fill="#093f68"/><path d="M273,237.31H127a5.18,5.18,0,0,1-5.17-5.17V158.59a5.18,5.18,0,0,1,5.17-5.17H273a5.18,5.18,0,0,1,5.17,5.17v73.55A5.18,5.18,0,0,1,273,237.31ZM127,155.42a3.17,3.17,0,0,0-3.17,3.17v73.55a3.17,3.17,0,0,0,3.17,3.17H273a3.17,3.17,0,0,0,3.17-3.17V158.59a3.17,3.17,0,0,0-3.17-3.17Z" fill="#093f68"/><rect x="122.79" y="149.85" width="154.42" height="81.89" rx="4.17" fill="#fff"/><path d="M273,232.74H127a5.18,5.18,0,0,1-5.17-5.17V154a5.18,5.18,0,0,1,5.17-5.17H273a5.18,5.18,0,0,1,5.17,5.17v73.55A5.18,5.18,0,0,1,273,232.74ZM127,150.85a3.18,3.18,0,0,0-3.17,3.17v73.55a3.17,3.17,0,0,0,3.17,3.17H273a3.17,3.17,0,0,0,3.17-3.17V154a3.18,3.18,0,0,0-3.17-3.17Z" fill="#093f68"/><path d="M261.56,201.38H138.44a5.63,5.63,0,0,1-5.63-5.62V162.6a5.64,5.64,0,0,1,5.63-5.63H261.56a5.64,5.64,0,0,1,5.63,5.63v33.16A5.63,5.63,0,0,1,261.56,201.38ZM138.44,159a3.64,3.64,0,0,0-3.63,3.63v33.16a3.63,3.63,0,0,0,3.63,3.62H261.56a3.63,3.63,0,0,0,3.63-3.62V162.6a3.64,3.64,0,0,0-3.63-3.63Z" fill="#dfeaef"/><path d="M215.78,225.43H184.23a4.31,4.31,0,0,1-4.32-4.31v-12a4.32,4.32,0,0,1,4.32-4.32h31.55a4.32,4.32,0,0,1,4.31,4.32v12A4.31,4.31,0,0,1,215.78,225.43Zm-31.55-18.58a2.32,2.32,0,0,0-2.32,2.32v12a2.32,2.32,0,0,0,2.32,2.31h31.55a2.32,2.32,0,0,0,2.31-2.31v-12a2.32,2.32,0,0,0-2.31-2.32Z" fill="#dfeaef"/><path d="M231.88,237.29V221.81s-8.74-7.06-10.43-10.26-3.87-14.47,0-15.14,3.87,6.22,4.88,7.74,4,3,4,3V177.4c0-6.73,7.06-3.62,7.74.25,0,0-.26-7.06,3.28-6.56s4,5.43,4,7.07c0,0,.05-5.95,3.44-5.32,4.52.85,5.27,8.22,5.27,8.22s.34-7,4-4.67,3.49,8.08,3.82,10.6,0,26.58,0,31.29-5.21,6.39-5.21,6.39v12.62Z" fill="#ffc9b0"/><path d="M256.78,238.29h-24.9a1,1,0,0,1-1-1v-15c-1.72-1.42-8.74-7.29-10.31-10.27-1.35-2.57-3.39-11-1.55-14.77a3.1,3.1,0,0,1,2.26-1.83c3.69-.64,4.69,3.62,5.29,6.17a9.37,9.37,0,0,0,.59,2,8.07,8.07,0,0,0,2.21,1.86v-28c0-4.3,2.64-4.86,3.45-4.93a6,6,0,0,1,4.54,1.9,6.33,6.33,0,0,1,1.65-3.52,3,3,0,0,1,2.52-.75,5.14,5.14,0,0,1,4,3.42,4.05,4.05,0,0,1,.86-1,3.15,3.15,0,0,1,2.64-.64c2.68.5,4.21,2.82,5.06,5a3.68,3.68,0,0,1,1.5-1.66,3,3,0,0,1,3.1.36c3.53,2.24,3.9,6.86,4.15,9.91,0,.53.08,1,.14,1.4.23,1.8.16,13.21.05,24.74,0,3-.05,5.48-.05,6.68,0,4.31-3.64,6.38-5.21,7.07v11.94A1,1,0,0,1,256.78,238.29Zm-23.9-2h22.9V224.67a1,1,0,0,1,.69-.95c.18-.06,4.52-1.53,4.52-5.44,0-1.2,0-3.66.05-6.7.08-8.47.2-22.65,0-24.46-.05-.42-.1-.93-.14-1.5-.22-2.66-.55-6.68-3.23-8.38-.48-.31-.86-.4-1.11-.27-.83.43-1.32,2.72-1.39,4.14a1,1,0,0,1-1,.95,1,1,0,0,1-1-.9c0-.06-.73-6.64-4.46-7.33a1.09,1.09,0,0,0-1,.21c-.89.74-1.24,2.92-1.26,4.13a1,1,0,0,1-1,1h0a1,1,0,0,1-1-1c0-.23,0-5.63-3.17-6.08a1,1,0,0,0-.9.25c-1.13,1-1.28,4.24-1.24,5.29a1,1,0,0,1-2,.2,4.52,4.52,0,0,0-4.13-3.36c-1.34.12-1.62,1.67-1.62,2.94v29.78a1,1,0,0,1-1.45.89c-.33-.17-3.3-1.68-4.42-3.37a8.93,8.93,0,0,1-.88-2.65c-.77-3.3-1.44-4.93-3-4.65-.21,0-.52.15-.81.73-1.34,2.74.22,10.47,1.53,13s7.78,8,10.17,9.95a1,1,0,0,1,.37.78Z" fill="#093f68"/><path d="M238.11,195.22a1,1,0,0,1-1-1V177.65a1,1,0,1,1,2,0v16.57A1,1,0,0,1,238.11,195.22Z" fill="#093f68"/><path d="M245.42,194.38a1,1,0,0,1-1-1V178.16a1,1,0,0,1,2,0v15.22A1,1,0,0,1,245.42,194.38Z" fill="#093f68"/><path d="M254.13,194.38a1,1,0,0,1-1-1V181.06a1,1,0,0,1,2,0v12.32A1,1,0,0,1,254.13,194.38Z" fill="#093f68"/><rect x="229.46" y="229.01" width="30.55" height="13.51" fill="#68e1fd" class="target-color"/><path d="M260,243.52H229.46a1,1,0,0,1-1-1V229a1,1,0,0,1,1-1H260a1,1,0,0,1,1,1v13.51A1,1,0,0,1,260,243.52Zm-29.54-2H259V230H230.46Z" fill="#093f68"/><path d="M262.88,243v-3.7a4,4,0,0,0-4-4H230a4,4,0,0,0-4,4V243Z" fill="#68e1fd" class="target-color"/><path d="M262.88,244H226a1,1,0,0,1-1-1v-3.7a5,5,0,0,1,5-5h28.91a5,5,0,0,1,5,5V243A1,1,0,0,1,262.88,244ZM227,242h34.91v-2.7a3,3,0,0,0-3-3H230a3,3,0,0,0-3,3Z" fill="#093f68"/><path d="M167.85,230.53V215.05s8.75-7.06,10.43-10.26,3.87-14.46,0-15.14-3.87,6.23-4.88,7.74-4,3-4,3V170.64c0-6.72-7.06-3.61-7.73.26,0,0,.25-7.07-3.28-6.56s-4,5.42-4,7.06c0,0,0-6-3.43-5.31-4.52.84-5.28,8.21-5.28,8.21s-.33-7-4-4.67-3.49,8.08-3.83,10.6,0,26.58,0,31.29,5.21,6.39,5.21,6.39v12.62Z" fill="#ffc9b0"/><path d="M167.85,231.53H143a1,1,0,0,1-1-1V218.59c-1.56-.69-5.21-2.76-5.21-7.07,0-1.2,0-3.65-.05-6.68-.1-11.53-.18-22.94.06-24.74.05-.39.09-.87.13-1.4.24-2.87.63-7.67,4.15-9.91a3,3,0,0,1,3.11-.35,3.58,3.58,0,0,1,1.49,1.65c.86-2.17,2.38-4.49,5.06-5a3.15,3.15,0,0,1,2.64.64,4.07,4.07,0,0,1,.86,1,5.12,5.12,0,0,1,4-3.42,3,3,0,0,1,2.52.74,6.36,6.36,0,0,1,1.65,3.52,6.13,6.13,0,0,1,4.54-1.9c.81.07,3.45.64,3.45,4.93V198.7a8.09,8.09,0,0,0,2.21-1.86,9.7,9.7,0,0,0,.59-2c.6-2.54,1.59-6.81,5.29-6.16a3.07,3.07,0,0,1,2.26,1.82c1.84,3.74-.19,12.2-1.55,14.77-1.57,3-8.59,8.85-10.31,10.27v15A1,1,0,0,1,167.85,231.53Zm-23.9-2h22.9V215.05a1,1,0,0,1,.37-.77c2.39-1.93,8.87-7.48,10.18-9.95s2.87-10.22,1.52-13c-.29-.58-.6-.7-.81-.73-1.54-.27-2.22,1.35-3,4.65a8.83,8.83,0,0,1-.88,2.66c-1.12,1.68-4.08,3.2-4.42,3.36a1,1,0,0,1-1.45-.89V170.64c0-1.27-.28-2.82-1.62-2.93a4.48,4.48,0,0,0-4.13,3.36,1,1,0,0,1-2-.21c.05-1.56-.24-4.38-1.25-5.28a1,1,0,0,0-.89-.25c-3.15.45-3.18,5.84-3.18,6.07a1,1,0,0,1-1,1,1,1,0,0,1-1-1c0-1.21-.36-3.39-1.25-4.13a1.14,1.14,0,0,0-1-.21c-3.73.69-4.46,7.27-4.46,7.34a1,1,0,0,1-1,.89,1,1,0,0,1-1-1c-.07-1.41-.56-3.71-1.38-4.14-.26-.13-.63,0-1.12.27-2.68,1.71-3,5.73-3.22,8.39,0,.56-.09,1.07-.15,1.49-.24,1.81-.11,16,0,24.47,0,3,.05,5.49.05,6.69,0,3.91,4.34,5.38,4.52,5.44a1,1,0,0,1,.69.95Z" fill="#093f68"/><path d="M161.63,188.47a1,1,0,0,1-1-1V170.9a1,1,0,1,1,2,0v16.57A1,1,0,0,1,161.63,188.47Z" fill="#093f68"/><path d="M154.31,187.62a1,1,0,0,1-1-1V171.4a1,1,0,0,1,2,0v15.22A1,1,0,0,1,154.31,187.62Z" fill="#093f68"/><path d="M145.6,187.62a1,1,0,0,1-1-1V174.3a1,1,0,0,1,2,0v12.32A1,1,0,0,1,145.6,187.62Z" fill="#093f68"/><rect x="139.73" y="222.25" width="30.55" height="13.51" transform="translate(310.01 458.02) rotate(-180)" fill="#68e1fd" class="target-color"/><path d="M170.28,236.77H139.73a1,1,0,0,1-1-1V222.25a1,1,0,0,1,1-1h30.55a1,1,0,0,1,1,1v13.52A1,1,0,0,1,170.28,236.77Zm-29.55-2h28.55V223.25H140.73Z" fill="#093f68"/><path d="M173.76,243V232.55a4,4,0,0,0-4-4h-28.9a4,4,0,0,0-4,4V243Z" fill="#68e1fd" class="target-color"/><path d="M173.76,244h-36.9a1,1,0,0,1-1-1V232.55a5,5,0,0,1,5-5h28.9a5,5,0,0,1,5,5V243A1,1,0,0,1,173.76,244Zm-35.9-2h34.9v-9.46a3,3,0,0,0-3-3h-28.9a3,3,0,0,0-3,3Z" fill="#093f68"/><path d="M276.59,59.41v88c0,1.33-1.55,2.41-3.46,2.41H126.25c-1.92,0-3.46-1.08-3.46-2.41v-88c0-1.34,1.54-2.42,3.46-2.42H273.13C275,57,276.59,58.07,276.59,59.41Z" fill="#fff"/><path d="M273.13,150.85H126.25c-2.5,0-4.46-1.49-4.46-3.41v-88c0-1.92,2-3.42,4.46-3.42H273.13c2.5,0,4.46,1.5,4.46,3.42v88C277.59,149.36,275.63,150.85,273.13,150.85ZM126.25,58c-1.45,0-2.46.75-2.46,1.42v88c0,.67,1,1.41,2.46,1.41H273.13c1.41,0,2.46-.74,2.46-1.41v-88c0-.67-1-1.42-2.46-1.42Z" fill="#093f68"/><path d="M276.59,59.41v88c0,1.33-1.55,2.41-3.46,2.41h-97.7V57h97.7C275,57,276.59,58.07,276.59,59.41Z" fill="#093f68"/><path d="M273.13,150.85h-97.7a1,1,0,0,1-1-1V57a1,1,0,0,1,1-1h97.7c2.5,0,4.46,1.5,4.46,3.42v88C277.59,149.36,275.63,150.85,273.13,150.85Zm-96.7-2h96.7c1.41,0,2.46-.74,2.46-1.41v-88c0-.67-1-1.42-2.46-1.42h-96.7Z" fill="#093f68"/><path d="M276.59,59.41v9.91H122.79V59.41c0-1.34,1.54-2.42,3.46-2.42H273.13C275,57,276.59,58.07,276.59,59.41Z" fill="#fff"/><path d="M276.59,70.32H122.79a1,1,0,0,1-1-1V59.41c0-1.92,2-3.42,4.46-3.42H273.13c2.5,0,4.46,1.5,4.46,3.42v9.91A1,1,0,0,1,276.59,70.32Zm-152.8-2h151.8V59.41c0-.67-1-1.42-2.46-1.42H126.25c-1.45,0-2.46.75-2.46,1.42Z" fill="#093f68"/><path d="M158.48,78.05H132.32a1,1,0,0,1,0-2h26.16a1,1,0,0,1,0,2Z" fill="#dfeaef"/><path d="M163,86.25h-22a1,1,0,0,1,0-2h22a1,1,0,0,1,0,2Z" fill="#dfeaef"/><path d="M166,94.44H147.64a1,1,0,0,1,0-2H166a1,1,0,0,1,0,2Z" fill="#dfeaef"/><path d="M160,102.64H136.81a1,1,0,0,1,0-2H160a1,1,0,0,1,0,2Z" fill="#dfeaef"/><path d="M153.75,110.83H132.32a1,1,0,0,1,0-2h21.43a1,1,0,0,1,0,2Z" fill="#dfeaef"/><path d="M158.48,119H139.55a1,1,0,0,1,0-2h18.93a1,1,0,0,1,0,2Z" fill="#dfeaef"/><path d="M151.94,127.22H132.32a1,1,0,0,1,0-2h19.62a1,1,0,0,1,0,2Z" fill="#dfeaef"/><path d="M158.48,135.42H139.55a1,1,0,0,1,0-2h18.93a1,1,0,0,1,0,2Z" fill="#dfeaef"/><path d="M201.47,78.05H185.54a1,1,0,0,1,0-2h15.93a1,1,0,0,1,0,2Z" fill="#fff"/><path d="M223.49,86.25H190.77a1,1,0,1,1,0-2h32.72a1,1,0,0,1,0,2Z" fill="#ffbc0e"/><path d="M215.37,94.44h-24.6a1,1,0,0,1,0-2h24.6a1,1,0,0,1,0,2Z" fill="#ffbc0e"/><path d="M202.39,102.64H188.27a1,1,0,0,1,0-2h14.12a1,1,0,0,1,0,2Z" fill="#fff"/><path d="M208,110.83H192.06a1,1,0,0,1,0-2H208a1,1,0,0,1,0,2Z" fill="#f56132"/><path d="M216.12,119H191.51a1,1,0,0,1,0-2h24.61a1,1,0,0,1,0,2Z" fill="#fff"/><path d="M197.49,127.22h-12a1,1,0,0,1,0-2h12a1,1,0,0,1,0,2Z" fill="#fff"/><path d="M216.12,135.42H189.94a1,1,0,0,1,0-2h26.18a1,1,0,0,1,0,2Z" fill="#70cc40"/><path d="M241.21,135.42H224a1,1,0,0,1,0-2h17.19a1,1,0,0,1,0,2Z" fill="#ffbc0e"/><path d="M235.63,94.44H223.49a1,1,0,0,1,0-2h12.14a1,1,0,0,1,0,2Z" fill="#fff"/><path d="M252.94,86.25H229.56a1,1,0,0,1,0-2h23.38a1,1,0,0,1,0,2Z" fill="#68e1fd" class="target-color"/><path d="M249.07,94.44h-6.84a1,1,0,1,1,0-2h6.84a1,1,0,0,1,0,2Z" fill="#f56132"/><path d="M219.54,110.83h-6.83a1,1,0,0,1,0-2h6.83a1,1,0,0,1,0,2Z" fill="#f56132"/><path d="M252.94,110.83H225.16a1,1,0,0,1,0-2h27.78a1,1,0,0,1,0,2Z" fill="#ffbc0e"/><path d="M229.56,119h-6.07a1,1,0,0,1,0-2h6.07a1,1,0,0,1,0,2Z" fill="#68e1fd" class="target-color"/><path d="M252.94,135.42h-3.87a1,1,0,0,1,0-2h3.87a1,1,0,0,1,0,2Z" fill="#fff"/><circle cx="130.72" cy="62.68" r="2.43" fill="#f56132"/><path d="M130.72,66.12a3.44,3.44,0,1,1,3.43-3.44A3.44,3.44,0,0,1,130.72,66.12Zm0-4.87a1.44,1.44,0,1,0,1.43,1.43A1.43,1.43,0,0,0,130.72,61.25Z" fill="#093f68"/><circle cx="140.55" cy="62.68" r="2.43" fill="#ffbc0e"/><path d="M140.55,66.12A3.44,3.44,0,1,1,144,62.68,3.44,3.44,0,0,1,140.55,66.12Zm0-4.87A1.44,1.44,0,1,0,142,62.68,1.44,1.44,0,0,0,140.55,61.25Z" fill="#093f68"/><circle cx="150.38" cy="62.68" r="2.43" fill="#70cc40"/><path d="M150.38,66.12a3.44,3.44,0,1,1,3.43-3.44A3.44,3.44,0,0,1,150.38,66.12Zm0-4.87a1.44,1.44,0,1,0,1.43,1.43A1.44,1.44,0,0,0,150.38,61.25Z" fill="#093f68"/></g></svg>